<svg xmlns="http://www.w3.org/2000/svg" xmlns:xlink="http://www.w3.org/1999/xlink" xmlns:fi="http://pattern.flaticon.com/" x="0" y="0" width="700" height="350" viewBox="0 0 700 350"><rect x="0px" y="0px" width="100%" height="100%" opacity="1" fill="#ffffff"/><defs><g transform="matrix(0.1318681389093399 0 0 0.1318681389093399 348 77)" id="L1_15"><rect x="119px" y="131px" width="93px" height="141px" fill="#ffd572"/><path d="M71.731,98.713v135.564c0,34.111,26.28,62.084,59.698,64.776h19.331V98.713H71.731z" fill="#ffe3a1"/><path d="M150.754,237.988c-19.455,22.974-31.187,52.697-31.187,85.16V425c0,16.5,13.5,30,30,30h203.703   c16.5,0,30-13.5,30-30V323.149c0-32.463-11.732-62.186-31.187-85.16" fill="#ffe3a1"/><path d="M354.214,1.955c-12.366-6.931-44.252,4.766-68.896,31.912c-10.682-3.202-22.072-4.938-33.9-4.938   c-11.828,0-23.218,1.737-33.9,4.938c-24.645-27.146-56.53-38.843-68.896-31.912c-14.671,8.222-21.341,53.56-1.158,95.136   c-4.099,10.721-6.337,22.261-6.337,34.288c0,56.581,49.379,102.45,110.292,102.45S361.71,187.96,361.71,131.379   c0-12.027-2.238-23.567-6.337-34.288C375.555,55.515,368.885,10.177,354.214,1.955z" fill="#ffe3a1"/><path d="M171.43,265.16v46.17c0,44.18,35.81,79.99,79.99,79.99c44.17,0,79.99-35.81,79.99-79.99v-46.17   H171.43z" fill="#87de66"/><path d="M352.07,237.99v16.51c0,11.36-9.3,20.66-20.66,20.66h-79.99h-79.99c-11.37,0-20.67-9.3-20.67-20.66   v-31.79c0-11.36,9.3-20.66,20.67-20.66l0.07-0.07c20.09,19.62,48.47,31.85,79.92,31.85s59.82-12.23,79.92-31.85l0.07,0.07   c11.36,0,20.66,9.3,20.66,20.66V237.99z" fill="#ff382e"/><path d="M251.42,347.5c-19.98,0-36.17-16.19-36.17-36.17c0-19.97,16.19-36.17,36.17-36.17   c19.97,0,36.17,16.2,36.17,36.17C287.59,331.31,271.39,347.5,251.42,347.5z" fill="#ffb914"/><path d="M209.66,85.91c17.12,0,31,13.88,31,31c0,17.13-13.88,31.01-31,31.01s-31-13.88-31-31.01   C178.66,99.79,192.54,85.91,209.66,85.91z" fill="#ffb914"/><path d="M297.31,85.91c17.12,0,31,13.88,31,31c0,17.13-13.88,31.01-31,31.01c-17.12,0-31-13.88-31-31.01   C266.31,99.79,280.19,85.91,297.31,85.91z" fill="#ffb914"/><path d="M209.663,129.581c-4.142,0-7.5-3.357-7.5-7.5v-10.334c0-4.143,3.358-7.5,7.5-7.5s7.5,3.357,7.5,7.5   v10.334C217.163,126.224,213.805,129.581,209.663,129.581z" fill="#3f3736"/><path d="M297.307,129.581c-4.142,0-7.5-3.357-7.5-7.5v-10.334c0-4.143,3.358-7.5,7.5-7.5s7.5,3.357,7.5,7.5   v10.334C304.807,126.224,301.449,129.581,297.307,129.581z" fill="#3f3736"/><path d="M251.418,303.83c-4.142,0-7.5,3.357-7.5,7.5v35.387c2.421,0.51,4.929,0.783,7.502,0.783   c2.571,0,5.078-0.273,7.498-0.783V311.33C258.918,307.187,255.56,303.83,251.418,303.83z" fill="#655f5e"/><path d="M353.269,424.998c-0.001-4.142-3.358-7.498-7.5-7.498c-0.002,0-34.353,0.012-34.353,0.012   c-4.142,0.001-7.499,3.36-7.498,7.502s0,29.986,0,29.986h49.351C353.269,455,353.27,429.132,353.269,424.998z" fill="#ffc743"/><path d="M149.567,424.998c0.001-4.142,3.358-7.498,7.5-7.498c0.002,0,34.353,0.012,34.353,0.012   c4.142,0.001,7.499,3.36,7.498,7.502s0,29.986,0,29.986h-49.351C149.567,455,149.566,429.132,149.567,424.998z" fill="#ffc743"/><path d="M150.76,88.713c0-21.823-17.691-39.514-39.515-39.514c-21.823,0-39.515,17.691-39.515,39.514v10   h79.029V88.713z" fill="#ffc743"/></g><g transform="matrix(0.13184814155101776 0 0 0.13184814155101776 195 67.9999987124205)" id="L1_16"><path d="M175.224,215.095c2.56-7.88-1.75-16.35-9.63-18.91c-7.88-2.56-16.34,1.76-18.9,9.63   c-2.56,7.88,1.75,16.35,9.63,18.91C164.204,227.285,172.664,222.965,175.224,215.095z M195.204,276.585   c-6.7-4.87-16.08-3.39-20.95,3.32c-4.87,6.7-3.38,16.08,3.32,20.95c6.7,4.87,16.08,3.38,20.95-3.32   C203.394,290.835,201.904,281.455,195.204,276.585z M227.534,177.085c8.28,0,15-6.71,15-15c0-8.28-6.72-15-15-15s-15,6.72-15,15   C212.534,170.375,219.254,177.085,227.534,177.085z M259.864,276.585c-6.7,4.87-8.19,14.25-3.32,20.95   c4.87,6.7,14.25,8.19,20.95,3.32c6.7-4.87,8.19-14.25,3.32-20.95C275.944,273.195,266.564,271.715,259.864,276.585z    M241.804,227.455c-1.95-6.02-7.61-10.37-14.27-10.37s-12.32,4.35-14.27,10.37c-0.47,1.46-0.73,3.01-0.73,4.63   c0,8.29,6.72,15,15,15s15-6.71,15-15C242.534,230.465,242.274,228.915,241.804,227.455z M279.844,215.095   c2.56,7.87,11.02,12.19,18.9,9.63s12.19-11.03,9.63-18.91c-2.56-7.87-11.02-12.19-18.9-9.63   C281.594,198.745,277.284,207.215,279.844,215.095z M454.764,212.905c4.2,39.91-35.69,61.43-81.81,66.43   c34.37,31.15,53.99,72.01,27.14,101.83c-12.61,14-29.29,22.13-46.64,24.24c-7.36,15.84-20.25,29.2-37.46,36.86   c-36.66,16.33-69.45-14.96-88.46-57.28c-19.01,42.32-51.8,73.61-88.46,57.28c-17.21-7.66-30.1-21.02-37.46-36.86   c-17.35-2.11-34.03-10.24-46.64-24.24c-26.85-29.82-7.23-70.68,27.14-101.83c-46.12-5-86.01-26.52-81.81-66.43   c1.97-18.74,10.69-35.12,23.48-47.02c-3.35-17.15-0.78-35.53,8.64-51.85c20.07-34.75,64.99-28.71,105.24-5.65   c-9.49-45.4-1.36-89.99,37.89-98.34c18.43-3.91,36.71-0.68,51.98,7.81c15.27-8.49,33.55-11.72,51.98-7.81   c39.25,8.35,47.38,52.94,37.89,98.34c40.25-23.06,85.17-29.1,105.24,5.65c9.42,16.32,11.99,34.7,8.64,51.85   C444.074,177.785,452.794,194.165,454.764,212.905z" fill="#ff8882"/><circle cx="297" cy="393" r="7" fill="#ff382e"/><circle cx="267" cy="363" r="7" fill="#ff382e"/><circle cx="402" cy="215" r="7" fill="#ff382e"/><path d="M289.292,219.905l-4.635-14.266l-49.623,16.124v-52.177h-15v52.177l-49.624-16.124l-4.635,14.266   l49.624,16.124l-30.669,42.212l12.135,8.816l30.669-42.211l30.669,42.211l12.135-8.816l-30.669-42.212L289.292,219.905z" fill="#ffffff"/><circle cx="227" cy="232" r="15" fill="#ffc743"/><circle cx="227" cy="162" r="15" fill="#ff382e"/><circle cx="160" cy="210" r="15" fill="#ff382e"/><circle cx="186" cy="288" r="15" fill="#ff382e"/><circle cx="268" cy="288" r="15" fill="#ff382e"/><circle cx="294" cy="210" r="15" fill="#ff382e"/></g><g transform="matrix(0.1297297328710556 0 0 0.1297297328710556 43 245)" id="L1_17"><path d="M223.75,287.88V455c0,4.142,3.357,7.5,7.5,7.5s7.5-3.358,7.5-7.5V287.88H223.75z" fill="#d19884"/><path d="M3.75,148.54l136.42,59.87h85.072L95.355,40.453C55.265,66.708,23.223,104.235,3.75,148.54z" fill="#ff382e"/><path d="M231.166,0.001c-50.13,0.017-96.784,14.893-135.812,40.452L205.242,208.41h45.925L231.166,0.001z" fill="#ff5700"/><path d="M277.482,208.41l89.82-167.855C328.221,14.918,281.479,0,231.25,0c-0.028,0-0.056,0.001-0.084,0.001   V208.41H277.482z" fill="#ff382e"/><path d="M322.33,208.41l136.42-59.87c-19.447-44.247-51.431-81.735-91.448-107.985L257.482,208.41H322.33z" fill="#ff5700"/><path d="M268.956,445.583l-20.271-94.609h-34.871l-20.271,94.609c-0.867,4.05,1.713,8.037,5.763,8.905   c4.05,0.871,8.036-1.711,8.905-5.762l17.729-82.752h10.617l17.729,82.752c0.869,4.051,4.855,6.633,8.905,5.762   C267.243,453.62,269.823,449.633,268.956,445.583z" fill="#d19884"/><path d="M176.9,165.1l38.342,43.314l16.118,39.916l-0.11,0.05l-91.08-39.97   C147.97,190.65,160.82,175.61,176.9,165.1z" fill="#d19884"/><path d="M231.25,248.38l45.34,19.9c-7.66,17.43-25.08,29.6-45.34,29.6s-37.68-12.17-45.34-29.6   L231.25,248.38z" fill="#ffbc99"/><path d="M231.25,148.94l10.066,59.47l-9.956,39.92L176.9,165.1C192.52,154.88,211.19,148.94,231.25,148.94z" fill="#ffbc99"/><circle cx="231" cy="352" r="20" fill="#de2f1b"/><path d="M231.25,148.94c20.12,0,38.85,5.98,54.5,16.26l-18.27,43.209l-36.12,39.921L231.25,148.94z" fill="#d19884"/><path d="M322.33,208.41l-90.97,39.92l54.39-83.13C301.76,175.7,314.55,190.71,322.33,208.41z" fill="#ffbc99"/></g><g transform="matrix(0.1318681389093399 0 0 0.1318681389093399 228 246)" id="L1_18"><path d="M455,124.4 362.62,124.4 382.62,52.02z" fill="#ffd572"/><path d="M382.62,124.4 382.62,205.56 305.84,128.79 382.62,52.02z" fill="#ffe3a1"/><path d="M261.98,326.21 185.2,402.98 185.2,249.43 225.2,249.43z" fill="#ffe3a1"/><path d="M241.29,64.23l-80.64,120.65h-40C120.64,184.88,0,64.23,0,64.23H241.29z" fill="#ffe3a1"/><path d="M241.29,64.23L120.65,184.88l141.33,141.33l120.64-120.64C382.62,205.56,241.29,64.23,241.29,64.23z   " fill="#ffd572"/><circle cx="253" cy="247" r="7" fill="#ffb914"/><circle cx="273" cy="207" r="7" fill="#ffb914"/></g><g transform="matrix(0.1318681389093399 0 0 0.1318681389093399 139 162)" id="L1_19"><path d="M7.36,108.5v192.04c0,22.27,18.22,40.49,40.48,40.49h68.18l26.869-193.063L7.36,108.5z" fill="#ff5700"/><path d="M145.58,20.24l-19.44-0.05c-5.57-0.02-13.65,2.84-17.97,6.35L7.36,108.5l125.529,49.468   L145.58,20.24z" fill="#ff8882"/><path d="M7.36,108.5l100.81-81.96c4.32-3.51,12.4-6.37,17.97-6.35l19.44,0.05L175.95,0l107.49,151.32   l-150.551,6.647L7.36,108.5z" fill="#ff8882"/><path d="M447.64,108.5v192.04c0,22.27-18.22,40.49-40.48,40.49h-68.18l-26.869-193.063L447.64,108.5z" fill="#ff8882"/><path d="M447.64,108.5L346.83,26.54c-4.32-3.51-12.4-6.37-17.97-6.35l-19.44,0.05L279.05,0L171.56,151.32   l150.551,6.647L447.64,108.5z" fill="#ffb8b4"/><path d="M146.38,250.05 146.38,455 338.98,455 338.98,260.05z" fill="#ffb8b4"/><path d="M116.02,260.05 116.02,455 146.38,455 146.38,250.05z" fill="#ff8882"/><path d="M116.02,205.688 116.02,260.05 338.98,260.05 338.98,205.688 227.5,195.688z" fill="#de2f1b"/><rect x="116px" y="151px" width="222px" height="54px" fill="#ff382e"/></g></defs><g fi:class="KUsePattern"><pattern id="pattern_L1_15" width="350" height="350" patternUnits="userSpaceOnUse"><use xlink:href="#L1_15" x="-350" y="-350"/><use xlink:href="#L1_15" x="0" y="-350"/><use xlink:href="#L1_15" x="350" y="-350"/><use xlink:href="#L1_15" x="-350" y="0"/><use xlink:href="#L1_15" x="0" y="0"/><use xlink:href="#L1_15" x="350" y="0"/><use xlink:href="#L1_15" x="-350" y="350"/><use xlink:href="#L1_15" x="0" y="350"/><use xlink:href="#L1_15" x="350" y="350"/></pattern><rect x="0" y="0" width="100%" height="100%" fill="url(#pattern_L1_15)"/></g><g fi:class="KUsePattern"><pattern id="pattern_L1_16" width="350" height="350" patternUnits="userSpaceOnUse"><use xlink:href="#L1_16" x="-350" y="-350"/><use xlink:href="#L1_16" x="0" y="-350"/><use xlink:href="#L1_16" x="350" y="-350"/><use xlink:href="#L1_16" x="-350" y="0"/><use xlink:href="#L1_16" x="0" y="0"/><use xlink:href="#L1_16" x="350" y="0"/><use xlink:href="#L1_16" x="-350" y="350"/><use xlink:href="#L1_16" x="0" y="350"/><use xlink:href="#L1_16" x="350" y="350"/></pattern><rect x="0" y="0" width="100%" height="100%" fill="url(#pattern_L1_16)"/></g><g fi:class="KUsePattern"><pattern id="pattern_L1_17" width="350" height="350" patternUnits="userSpaceOnUse"><use xlink:href="#L1_17" x="-350" y="-350"/><use xlink:href="#L1_17" x="0" y="-350"/><use xlink:href="#L1_17" x="350" y="-350"/><use xlink:href="#L1_17" x="-350" y="0"/><use xlink:href="#L1_17" x="0" y="0"/><use xlink:href="#L1_17" x="350" y="0"/><use xlink:href="#L1_17" x="-350" y="350"/><use xlink:href="#L1_17" x="0" y="350"/><use xlink:href="#L1_17" x="350" y="350"/></pattern><rect x="0" y="0" width="100%" height="100%" fill="url(#pattern_L1_17)"/></g><g fi:class="KUsePattern"><pattern id="pattern_L1_18" width="350" height="350" patternUnits="userSpaceOnUse"><use xlink:href="#L1_18" x="-350" y="-350"/><use xlink:href="#L1_18" x="0" y="-350"/><use xlink:href="#L1_18" x="350" y="-350"/><use xlink:href="#L1_18" x="-350" y="0"/><use xlink:href="#L1_18" x="0" y="0"/><use xlink:href="#L1_18" x="350" y="0"/><use xlink:href="#L1_18" x="-350" y="350"/><use xlink:href="#L1_18" x="0" y="350"/><use xlink:href="#L1_18" x="350" y="350"/></pattern><rect x="0" y="0" width="100%" height="100%" fill="url(#pattern_L1_18)"/></g><g fi:class="KUsePattern"><pattern id="pattern_L1_19" width="350" height="350" patternUnits="userSpaceOnUse"><use xlink:href="#L1_19" x="-350" y="-350"/><use xlink:href="#L1_19" x="0" y="-350"/><use xlink:href="#L1_19" x="350" y="-350"/><use xlink:href="#L1_19" x="-350" y="0"/><use xlink:href="#L1_19" x="0" y="0"/><use xlink:href="#L1_19" x="350" y="0"/><use xlink:href="#L1_19" x="-350" y="350"/><use xlink:href="#L1_19" x="0" y="350"/><use xlink:href="#L1_19" x="350" y="350"/></pattern><rect x="0" y="0" width="100%" height="100%" fill="url(#pattern_L1_19)"/></g></svg>