<svg xmlns="http://www.w3.org/2000/svg" xmlns:xlink="http://www.w3.org/1999/xlink" version="1.1" x="0px" y="0px" viewBox="0 0 100 125" enable-background="new 0 0 100 100" xml:space="preserve"><g><circle fill="#52BE80" cx="50" cy="23.385" r="6.802"/><path fill="#52BE80" d="M71.765,19.166c-1-1-2.623-1-3.624,0l-12.25,12.25H44.109l-12.25-12.25c-1.001-1-2.624-1-3.624,0   c-1.001,1.001-1.001,2.624,0,3.624l13.347,13.348c0.053,0.053,0.113,0.091,0.169,0.138v9.454v12.188v22.188   c0,1.829,1.482,3.313,3.313,3.313s3.313-1.483,3.313-3.313V57.917h3.25v22.188c0,1.829,1.482,3.313,3.313,3.313   s3.313-1.483,3.313-3.313V45.729c0-0.004-0.001-0.006-0.001-0.01v-9.444c0.056-0.047,0.116-0.085,0.169-0.138L71.765,22.79   C72.766,21.79,72.766,20.167,71.765,19.166z"/></g></svg>